<svg width="120" height="120" viewBox="0 0 120 120"  xmlns="http://www.w3.org/2000/svg">
    <path
        d="M47.8146 1.17848C24.5495 5.71915 5.80171 24.4201 1.21423 47.615C-7.44581 91.3833 32.0393 124.011 61.7877 119.4C71.4307 117.902 76.1587 106.62 71.735 97.9368C66.3283 87.3107 74.0522 74.9058 85.989 74.9058H104.643C113.022 74.9058 119.81 67.9778 119.833 59.622C119.716 22.7349 86.1528 -6.28788 47.8146 1.17848ZM22.4664 74.9058C18.3237 74.9058 14.9767 71.5588 14.9767 67.4161C14.9767 63.2733 18.3237 59.9263 22.4664 59.9263C26.6092 59.9263 29.9562 63.2733 29.9562 67.4161C29.9562 71.5588 26.6092 74.9058 22.4664 74.9058ZM29.9562 44.9468C25.8134 44.9468 22.4664 41.5998 22.4664 37.457C22.4664 33.3142 25.8134 29.9672 29.9562 29.9672C34.099 29.9672 37.4459 33.3142 37.4459 37.457C37.4459 41.5998 34.099 44.9468 29.9562 44.9468ZM59.9152 29.9672C55.7725 29.9672 52.4255 26.6203 52.4255 22.4775C52.4255 18.3347 55.7725 14.9877 59.9152 14.9877C64.058 14.9877 67.405 18.3347 67.405 22.4775C67.405 26.6203 64.058 29.9672 59.9152 29.9672ZM89.8743 44.9468C85.7315 44.9468 82.3845 41.5998 82.3845 37.457C82.3845 33.3142 85.7315 29.9672 89.8743 29.9672C94.0171 29.9672 97.364 33.3142 97.364 37.457C97.364 41.5998 94.0171 44.9468 89.8743 44.9468Z"
        fill="#5A67D8" />
</svg>